PathFileType	4	(X/Y/Z)	Patient4_TMGait_0pt2_01_left_05.trc.trc
DataRate	CameraRate	NumFrames	NumMarkers	Units	OrigDataRate	OrigDataStartFrame	OrigNumFrames
42.813455657492	42.813455657492	4	33	mm	42.813455657492	89	       141
Frame#	Time	Sacral			L.Shoulder			Chest			R.Shoulder			Neck			R.ASIS			L.ASIS			R.Thigh.Superior			R.Thigh.Lateral			R.Thigh.Inferior			R.Patella			L.Thigh.Superior			L.Thigh.Lateral			L.Thigh.Inferior			L.Patella			L.Shank.Superior			L.Shank.Lateral			L.Shank.Inferior			R.Shank.Superior			R.Shank.Lateral			R.Shank.Inferior			R.Heel			R.Midfoot.Superior			R.Midfoot.Lateral			R.Toe			L.Heel			L.Midfoot.Lateral			L.Midfoot.Superior			L.Toe			L.Elbow			L.Wrist			R.Elbow			R.Wrist			
		X1	Y1	Z1	X2	Y2	Z2	X3	Y3	Z3	X4	Y4	Z4	X5	Y5	Z5	X6	Y6	Z6	X7	Y7	Z7	X8	Y8	Z8	X9	Y9	Z9	X10	Y10	Z10	X11	Y11	Z11	X12	Y12	Z12	X13	Y13	Z13	X14	Y14	Z14	X15	Y15	Z15	X16	Y16	Z16	X17	Y17	Z17	X18	Y18	Z18	X19	Y19	Z19	X20	Y20	Z20	X21	Y21	Z21	X22	Y22	Z22	X23	Y23	Z23	X24	Y24	Z24	X25	Y25	Z25	X26	Y26	Z26	X27	Y27	Z27	X28	Y28	Z28	X29	Y29	Z29	X30	Y30	Z30	X31	Y31	Z31	X32	Y32	Z32	X33	Y33	Z33	

89	12.385428571429	821.865650156879	998.768678886110	498.161536813548	1015.633580504803	1435.133211924943	353.518408101966	1081.212289054931	1372.473158552008	533.919284495861	955.072844898303	1440.110303946732	682.792506109004	960.659103207309	1494.745827269312	504.198256404590	1028.892015616956	946.636009719824	659.054319868018	1063.265276510510	961.446318748948	387.075815932195	1085.415559792312	747.377184631709	627.438546226127	1005.344710269627	631.131586975119	675.813391261735	1092.467130281908	585.053879678029	602.713216502957	1097.309109260896	495.671830054020	606.965371853884	1072.092589782234	729.536795542403	411.694239323871	972.631940754477	627.215867503884	331.981730343616	1030.731143902111	536.036934013345	401.887103296963	1016.988741282926	461.566217723259	403.598040760297	968.397299640525	401.204033504870	386.470650596200	854.817615147953	319.781309850410	320.179899909752	868.850784193770	193.269703581183	382.325951757827	1068.180372294129	405.520761356694	609.525642671231	993.189555214114	301.597255093189	666.855911713366	1036.944803521406	207.149085674618	604.853310592521	901.342784554467	43.765446306255	570.084636154712	1072.120157951486	97.789108718270	612.012517249743	982.702207325878	37.733506076458	647.501350226135	1190.692012908567	45.012415983854	643.917479431845	705.842730408598	61.108301927286	400.850323935155	785.069953657878	49.690875042305	326.683038790861	873.001693745698	100.892075458997	359.925178478797	995.202336887529	38.044652654437	337.958389221133	1160.347469333130	1143.082047724486	198.286657801082	1416.524300048206	1103.240454463885	237.099609297263	838.375445765767	1114.581942397553	793.442354811179	921.926228248633	867.720343020910	817.520880686055	
90	12.408785714286	821.984306448482	999.288462765341	504.155349935257	1014.246972835166	1435.110356142301	356.040541700629	1081.956085079708	1372.866356554344	535.820026415774	957.659820988866	1440.808139533704	686.091572001304	961.335941684829	1495.210226856945	507.180630259301	1030.466009047111	947.160936969954	662.958926055145	1062.186899729650	961.494146315625	390.652460565329	1084.843561199107	746.917915925004	630.700444083692	1003.623462334165	631.095143188700	678.842914527386	1089.832372953913	584.553725773202	605.231132146586	1093.539212541636	495.254170870419	608.882346532695	1074.301031693584	730.488428646961	415.538922343064	976.699168130590	626.854909151419	336.244922245128	1037.241466380171	536.082306605936	405.464545771715	1024.298421646814	460.354052804314	406.186036573216	973.355898322049	400.722755095432	389.054448274807	857.427867897594	322.660737488950	322.846955621858	869.062857403917	195.153640906865	383.123967940259	1064.365240864491	405.281016190754	611.146339586808	989.290785617158	301.281458935123	668.027872084346	1032.668184246811	207.018792585496	605.448013443839	896.641118396413	43.832730482705	570.112893233520	1067.547021318506	97.790858524139	612.171008966489	978.012786242971	37.758626847120	647.516349307909	1186.037222964631	44.673343588612	643.931990048749	702.788728696759	67.056138682323	401.164830556572	781.605463047470	53.189758594574	326.931276150408	871.076793534102	102.023692283245	359.840213146622	991.092733348326	37.566516661578	337.859096333918	1149.516660870801	1136.200590666639	202.538551548911	1403.815152700936	1083.972370112920	240.313925360836	846.467679842869	1114.438570984097	801.240269439681	938.128090981204	870.545638052284	825.557588110245	
91	12.432142857143	822.002002543903	999.673037330992	510.021262311379	1012.380301511823	1435.032926072732	358.363901937801	1082.306389398160	1373.283578489384	537.487342443769	959.863182629153	1441.451389565559	689.160208791989	961.553538246278	1495.596839511698	509.968271580210	1031.994763626429	947.663463021222	666.685731176406	1061.020772347397	961.557900880858	394.070454120465	1084.294262043852	746.466010125387	633.753209216389	1001.997678407168	631.031721581138	681.741563474126	1087.248030031768	584.044489141821	607.584770200555	1089.837480667669	494.819075030861	610.674361436959	1076.867375061356	731.602932709989	419.396678336326	981.596505924327	626.488843212912	340.366098863835	1044.695085998885	536.314958263009	408.988346376388	1032.642312524770	459.314357049652	408.607893229205	979.393018608459	400.333304423094	391.490396026526	861.120210630045	325.820993233128	325.440429075541	870.107445950784	197.395502691268	383.805407538424	1060.600470491079	405.021500383202	612.667505864709	985.426174309444	300.968425074878	669.121852333527	1028.407647691391	206.880848720778	605.977382026718	891.914097310825	43.886510976028	570.139205389780	1062.943725222450	97.809026294016	612.314638369753	973.292187452250	37.778578389914	647.518084449987	1181.350316515109	44.387643523025	643.930321823742	700.394730586669	74.051338077612	401.474855374078	778.570430440557	57.324947592203	327.163829056964	869.742978768674	103.285171650660	359.650228806346	987.029418898014	37.183101894688	337.766859834251	1137.167943167601	1129.012205768583	207.011045734076	1388.506548832363	1062.913588732847	243.595974111847	855.354700270797	1113.918551288115	808.771916013521	955.849012342442	873.620461514648	833.352145349262	
92	12.455500000000	821.894256396924	999.883709383137	515.785019598011	1010.068657749643	1434.835091865522	360.503652260346	1082.287567257798	1373.664200685102	538.938101986902	961.715649521889	1442.020820075619	692.000331036400	961.343581653211	1495.861451946355	512.561485145122	1033.454683210591	948.103501148530	670.254264713988	1059.736459482857	961.590082116230	397.347959397058	1083.811486264636	746.017332587242	636.598747021697	1000.578171614278	630.911215066723	684.521718981697	1084.834507359124	583.521168597688	609.771057780659	1086.372027202061	494.335046702829	612.345870971954	1079.764559498604	732.893324327788	423.237809164759	987.306722714140	626.167366812857	344.281654198496	1053.064254568962	536.801622882405	412.395755532665	1042.016138590629	458.535065151469	410.815309788946	986.552768969786	400.090622730980	393.717479849951	865.961337649834	329.297063067524	327.899060291743	872.087995300041	200.045085190351	384.331769775409	1057.007472877591	404.710235615639	614.088376432647	981.692979772868	300.643100809959	670.148423133974	1024.219458501702	206.716531568482	606.439121520102	887.177522014852	43.926491114952	570.167105786982	1058.319426893370	97.831592185812	612.431218906034	968.556176406158	37.791541536340	647.511856979586	1176.648654914922	44.153882370592	643.921700545160	698.864163391969	82.225168704890	401.761294499386	776.088445568485	62.209953482559	327.366114868203	869.073329330004	104.693645292860	359.339772180085	982.997714414857	36.862512843658	337.681799623007	1123.459446792416	1121.630130699642	211.753859081636	1370.447822101666	1040.256928882495	247.011748401034	865.038489234940	1113.065069005368	815.981604278991	975.093042634639	877.103828801453	840.817416674585	
